{
  "accessors": [
    {
      "bufferView": 1,
      "componentType": 5126,
      "count": 13364,
      "max": [
        34.215770721435547,
        40.436996459960938,
        71.975273132324219
      ],
      "min": [
        -117.49882507324219,
        -84.234794616699219,
        57.788478851318359
      ],
      "type": "VEC3"
    },
    {
      "bufferView": 1,
      "byteOffset": 160368,
      "componentType": 5126,
      "count": 13364,
      "max": [
        0.99999779462814331,
        0.99997502565383911,
        1
      ],
      "min": [
        -0.99997532367706299,
        -0.99997508525848389,
        -1
      ],
      "type": "VEC3"
    },
    {
      "bufferView": 2,
      "componentType": 5126,
      "count": 13364,
      "max": [
        0.7079232931137085,
        0.53653591871261597,
        1,
        1
      ],
      "min": [
        -0.91318923234939575,
        -0.99371784925460815,
        -1,
        -1
      ],
      "type": "VEC4"
    },
    {
      "bufferView": 0,
      "componentType": 5125,
      "count": 70608,
      "max": [
        13363
      ],
      "min": [
        0
      ],
      "type": "SCALAR"
    },
    {
      "bufferView": 1,
      "byteOffset": 320736,
      "componentType": 5126,
      "count": 14760,
      "max": [
        47.823047637939453,
        -37.233310699462891,
        66.071815490722656
      ],
      "min": [
        -90.684524536132812,
        -93.457748413085938,
        40.201026916503906
      ],
      "type": "VEC3"
    },
    {
      "bufferView": 1,
      "byteOffset": 497856,
      "componentType": 5126,
      "count": 14760,
      "max": [
        0.99999946355819702,
        0.99777239561080933,
        1
      ],
      "min": [
        -0.99738115072250366,
        -0.99995028972625732,
        -0.99999886751174927
      ],
      "type": "VEC3"
    },
    {
      "bufferView": 2,
      "byteOffset": 213824,
      "componentType": 5126,
      "count": 14760,
      "max": [
        0.98454797267913818,
        0.53541392087936401,
        1,
        1
      ],
      "min": [
        -0.99942243099212646,
        -0.98525542020797729,
        -1,
        -1
      ],
      "type": "VEC4"
    },
    {
      "bufferView": 0,
      "byteOffset": 282432,
      "componentType": 5125,
      "count": 75372,
      "max": [
        14759
      ],
      "min": [
        0
      ],
      "type": "SCALAR"
    },
    {
      "bufferView": 1,
      "byteOffset": 674976,
      "componentType": 5126,
      "count": 65532,
      "max": [
        51.299442291259766,
        53.44219970703125,
        85.158798217773438
      ],
      "min": [
        -134.93388366699219,
        -96.747062683105469,
        34.285144805908203
      ],
      "type": "VEC3"
    },
    {
      "bufferView": 1,
      "byteOffset": 1461360,
      "componentType": 5126,
      "count": 65532,
      "max": [
        0.99984449148178101,
        0.99996101856231689,
        1
      ],
      "min": [
        -0.99966156482696533,
        -0.99981063604354858,
        -1
      ],
      "type": "VEC3"
    },
    {
      "bufferView": 2,
      "byteOffset": 449984,
      "componentType": 5126,
      "count": 65532,
      "max": [
        0.98926526308059692,
        0.92554903030395508,
        1,
        1
      ],
      "min": [
        -0.99826139211654663,
        -0.99969708919525146,
        -1,
        -1
      ],
      "type": "VEC4"
    },
    {
      "bufferView": 0,
      "byteOffset": 583920,
      "componentType": 5125,
      "count": 359757,
      "max": [
        65531
      ],
      "min": [
        0
      ],
      "type": "SCALAR"
    },
    {
      "bufferView": 1,
      "byteOffset": 2247744,
      "componentType": 5126,
      "count": 51021,
      "max": [
        50.992107391357422,
        52.608722686767578,
        112.47431182861328
      ],
      "min": [
        -134.78883361816406,
        -103.57875823974609,
        34.701900482177734
      ],
      "type": "VEC3"
    },
    {
      "bufferView": 1,
      "byteOffset": 2859996,
      "componentType": 5126,
      "count": 51021,
      "max": [
        0.99994963407516479,
        0.99992609024047852,
        1
      ],
      "min": [
        -0.99994254112243652,
        -0.99990034103393555,
        -1
      ],
      "type": "VEC3"
    },
    {
      "bufferView": 2,
      "byteOffset": 1498496,
      "componentType": 5126,
      "count": 51021,
      "max": [
        0.99830514192581177,
        0.99932056665420532,
        1,
        1
      ],
      "min": [
        -0.99981355667114258,
        -0.99940860271453857,
        -1,
        -1
      ],
      "type": "VEC4"
    },
    {
      "bufferView": 0,
      "byteOffset": 2022948,
      "componentType": 5125,
      "count": 272343,
      "max": [
        51020
      ],
      "min": [
        0
      ],
      "type": "SCALAR"
    },
    {
      "bufferView": 1,
      "byteOffset": 3472248,
      "componentType": 5126,
      "count": 18869,
      "max": [
        51.299442291259766,
        53.071529388427734,
        91.849899291992188
      ],
      "min": [
        -134.64756774902344,
        -103.020751953125,
        45.233142852783203
      ],
      "type": "VEC3"
    },
    {
      "bufferView": 1,
      "byteOffset": 3698676,
      "componentType": 5126,
      "count": 18869,
      "max": [
        0.99999517202377319,
        0.99997711181640625,
        1
      ],
      "min": [
        -0.99999511241912842,
        -0.99992084503173828,
        -1
      ],
      "type": "VEC3"
    },
    {
      "bufferView": 2,
      "byteOffset": 2314832,
      "componentType": 5126,
      "count": 18869,
      "max": [
        0.9999956488609314,
        0.99999696016311646,
        1,
        1
      ],
      "min": [
        -0.9999956488609314,
        -1,
        -1,
        -1
      ],
      "type": "VEC4"
    },
    {
      "bufferView": 0,
      "byteOffset": 3112320,
      "componentType": 5125,
      "count": 99729,
      "max": [
        18868
      ],
      "min": [
        0
      ],
      "type": "SCALAR"
    },
    {
      "bufferView": 1,
      "byteOffset": 3925104,
      "componentType": 5126,
      "count": 930,
      "max": [
        26.950290679931641,
        -48.799640655517578,
        66.567337036132812
      ],
      "min": [
        -2.0859749317169189,
        -79.650787353515625,
        60.558418273925781
      ],
      "type": "VEC3"
    },
    {
      "bufferView": 1,
      "byteOffset": 3936264,
      "componentType": 5126,
      "count": 930,
      "max": [
        0.98740190267562866,
        0.99264401197433472,
        0.99999862909317017
      ],
      "min": [
        -0.99242687225341797,
        -0.99263590574264526,
        0.049437720328569412
      ],
      "type": "VEC3"
    },
    {
      "bufferView": 2,
      "byteOffset": 2616736,
      "componentType": 5126,
      "count": 930,
      "max": [
        -0.031236359849572182,
        -0.039141379296779633,
        0.9987453818321228,
        1
      ],
      "min": [
        -0.6393512487411499,
        -0.78766995668411255,
        -0.99874526262283325,
        1
      ],
      "type": "VEC4"
    },
    {
      "bufferView": 0,
      "byteOffset": 3511236,
      "componentType": 5125,
      "count": 5184,
      "max": [
        929
      ],
      "min": [
        0
      ],
      "type": "SCALAR"
    },
    {
      "bufferView": 1,
      "byteOffset": 3947424,
      "componentType": 5126,
      "count": 1366,
      "max": [
        35.414794921875,
        -66.313453674316406,
        63.378631591796875
      ],
      "min": [
        18.525407791137695,
        -84.921661376953125,
        61.3597412109375
      ],
      "type": "VEC3"
    },
    {
      "bufferView": 1,
      "byteOffset": 3963816,
      "componentType": 5126,
      "count": 1366,
      "max": [
        0.99849545955657959,
        0.99110430479049683,
        0.99969786405563354
      ],
      "min": [
        -0.99018514156341553,
        -0.99284166097640991,
        -0.096219629049301147
      ],
      "type": "VEC3"
    },
    {
      "bufferView": 2,
      "byteOffset": 2631616,
      "componentType": 5126,
      "count": 1366,
      "max": [
        0.11997570097446442,
        0.074978992342948914,
        0.99999737739562988,
        1
      ],
      "min": [
        -0.87335669994354248,
        -0.78992617130279541,
        -0.99999403953552246,
        -1
      ],
      "type": "VEC4"
    },
    {
      "bufferView": 0,
      "byteOffset": 3531972,
      "componentType": 5125,
      "count": 7632,
      "max": [
        1365
      ],
      "min": [
        0
      ],
      "type": "SCALAR"
    },
    {
      "bufferView": 1,
      "byteOffset": 3980208,
      "componentType": 5126,
      "count": 4152,
      "max": [
        11.303133010864258,
        32.447032928466797,
        83.726593017578125
      ],
      "min": [
        -106.99919891357422,
        -67.390670776367188,
        55.685890197753906
      ],
      "type": "VEC3"
    },
    {
      "bufferView": 1,
      "byteOffset": 4030032,
      "componentType": 5126,
      "count": 4152,
      "max": [
        0.99981313943862915,
        0.8496248722076416,
        0.99924463033676147
      ],
      "min": [
        -0.89549022912979126,
        -0.99867600202560425,
        -0.54868239164352417
      ],
      "type": "VEC3"
    },
    {
      "bufferView": 2,
      "byteOffset": 2653472,
      "componentType": 5126,
      "count": 4152,
      "max": [
        0.021876191720366478,
        0.0017338864272460341,
        0.99999970197677612,
        1
      ],
      "min": [
        -0.62850558757781982,
        -0.78523963689804077,
        -0.99999904632568359,
        -1
      ],
      "type": "VEC4"
    },
    {
      "bufferView": 0,
      "byteOffset": 3562500,
      "componentType": 5125,
      "count": 21792,
      "max": [
        4151
      ],
      "min": [
        0
      ],
      "type": "SCALAR"
    }
  ],
  "asset": {
    "extras": {
      "author": "marioSF (https://sketchfab.com/marioSF)",
      "license": "CC-BY-4.0 (http://creativecommons.org/licenses/by/4.0/)",
      "source": "https://sketchfab.com/models/86d6c06d0251403795b843153baa06e5",
      "title": "Yacht Adastra"
    },
    "generator": "Sketchfab-3.18.6",
    "version": "2.0"
  },
  "bufferViews": [
    {
      "buffer": 0,
      "byteLength": 3649668,
      "byteOffset": 0,
      "name": "floatBufferViews",
      "target": 34963
    },
    {
      "buffer": 0,
      "byteLength": 4079856,
      "byteOffset": 3649668,
      "byteStride": 12,
      "name": "floatBufferViews",
      "target": 34962
    },
    {
      "buffer": 0,
      "byteLength": 2719904,
      "byteOffset": 7729524,
      "byteStride": 16,
      "name": "floatBufferViews",
      "target": 34962
    }
  ],
  "buffers": [
    {
      "byteLength": 10449428,
      "uri": "scene.bin"
    }
  ],
  "materials": [
    {
      "doubleSided": true,
      "emissiveFactor": [
        0,
        0,
        0
      ],
      "name": "Aluminium_Alloy_0_5",
      "pbrMetallicRoughness": {
        "baseColorFactor": [
          0.085152777499999999,
          0.076173011600000007,
          0.076173011600000007,
          1
        ],
        "metallicFactor": 0,
        "roughnessFactor": 0.33012576220000001
      }
    },
    {
      "doubleSided": true,
      "emissiveFactor": [
        0,
        0,
        0
      ],
      "name": "MAIN_MATERIAL_only_modifiy_this_one_0_2",
      "pbrMetallicRoughness": {
        "baseColorFactor": [
          0.50196099999999999,
          0.50196099999999999,
          0.50196099999999999,
          1
        ],
        "metallicFactor": 0,
        "roughnessFactor": 1
      }
    },
    {
      "doubleSided": true,
      "emissiveFactor": [
        0,
        0,
        0
      ],
      "name": "NanoBling_0_1",
      "pbrMetallicRoughness": {
        "baseColorFactor": [
          0.64313699999999996,
          0.62745099999999998,
          0.67058799999999996,
          1
        ],
        "metallicFactor": 0,
        "roughnessFactor": 0.098418445100000002
      }
    },
    {
      "doubleSided": true,
      "emissiveFactor": [
        0,
        0,
        0
      ],
      "name": "Rubber_by_Monaro_PL_0_3",
      "pbrMetallicRoughness": {
        "baseColorFactor": [
          0.030178545800000001,
          0.0038557499000000002,
          0.21815952229999999,
          1
        ],
        "metallicFactor": 0.20207698169999999,
        "roughnessFactor": 0.26915015240000001
      }
    },
    {
      "doubleSided": true,
      "emissiveFactor": [
        0,
        0,
        0
      ],
      "name": "Skin3Incandescence_0_6",
      "pbrMetallicRoughness": {
        "baseColorFactor": [
          0.49803900000000001,
          0.49803900000000001,
          0.49803900000000001,
          1
        ],
        "metallicFactor": 0,
        "roughnessFactor": 1
      }
    },
    {
      "doubleSided": true,
      "emissiveFactor": [
        0,
        0,
        0
      ],
      "name": "SkinByBravefart_0_7",
      "pbrMetallicRoughness": {
        "baseColorFactor": [
          0,
          0,
          0,
          1
        ],
        "metallicFactor": 0,
        "roughnessFactor": 1
      }
    },
    {
      "alphaMode": "BLEND",
      "doubleSided": true,
      "emissiveFactor": [
        0.11147103658,
        0.11147103658,
        0.11147103658
      ],
      "name": "black_knight_0_4",
      "pbrMetallicRoughness": {
        "baseColorFactor": [
          0,
          0,
          0,
          0.77353277440000001
        ],
        "metallicFactor": 0,
        "roughnessFactor": 0.098418445100000002
      }
    }
  ],
  "meshes": [
    {
      "primitives": [
        {
          "attributes": {
            "NORMAL": 1,
            "POSITION": 0,
            "TANGENT": 2
          },
          "indices": 3,
          "material": 0,
          "mode": 4
        }
      ]
    },
    {
      "primitives": [
        {
          "attributes": {
            "NORMAL": 5,
            "POSITION": 4,
            "TANGENT": 6
          },
          "indices": 7,
          "material": 1,
          "mode": 4
        }
      ]
    },
    {
      "primitives": [
        {
          "attributes": {
            "NORMAL": 9,
            "POSITION": 8,
            "TANGENT": 10
          },
          "indices": 11,
          "material": 2,
          "mode": 4
        }
      ]
    },
    {
      "primitives": [
        {
          "attributes": {
            "NORMAL": 13,
            "POSITION": 12,
            "TANGENT": 14
          },
          "indices": 15,
          "material": 2,
          "mode": 4
        }
      ]
    },
    {
      "primitives": [
        {
          "attributes": {
            "NORMAL": 17,
            "POSITION": 16,
            "TANGENT": 18
          },
          "indices": 19,
          "material": 3,
          "mode": 4
        }
      ]
    },
    {
      "primitives": [
        {
          "attributes": {
            "NORMAL": 21,
            "POSITION": 20,
            "TANGENT": 22
          },
          "indices": 23,
          "material": 4,
          "mode": 4
        }
      ]
    },
    {
      "primitives": [
        {
          "attributes": {
            "NORMAL": 25,
            "POSITION": 24,
            "TANGENT": 26
          },
          "indices": 27,
          "material": 5,
          "mode": 4
        }
      ]
    },
    {
      "primitives": [
        {
          "attributes": {
            "NORMAL": 29,
            "POSITION": 28,
            "TANGENT": 30
          },
          "indices": 31,
          "material": 6,
          "mode": 4
        }
      ]
    }
  ],
  "nodes": [
    {
      "children": [
        1
      ],
      "name": "RootNode (gltf orientation matrix)",
      "rotation": [
        -0.70710678118654746,
        -0,
        -0,
        0.70710678118654757
      ]
    },
    {
      "children": [
        2
      ],
      "name": "RootNode (model correction matrix)"
    },
    {
      "children": [
        3,
        4,
        5,
        6,
        7,
        8,
        9,
        10
      ],
      "name": "Yacht Adastra.obj.cleaner.materialmerger.gles"
    },
    {
      "mesh": 0,
      "name": ""
    },
    {
      "mesh": 1,
      "name": ""
    },
    {
      "mesh": 2,
      "name": ""
    },
    {
      "mesh": 3,
      "name": ""
    },
    {
      "mesh": 4,
      "name": ""
    },
    {
      "mesh": 5,
      "name": ""
    },
    {
      "mesh": 6,
      "name": ""
    },
    {
      "mesh": 7,
      "name": ""
    }
  ],
  "scene": 0,
  "scenes": [
    {
      "name": "OSG_Scene",
      "nodes": [
        0
      ]
    }
  ]
}

