{
  "accessors": [
    {
      "bufferView": 2,
      "componentType": 5126,
      "count": 5258,
      "max": [
        6.5458173751831055,
        22.438938140869141,
        16.625476837158203
      ],
      "min": [
        -6.5458173751831055,
        -1.8489058017730713,
        -17.154497146606445
      ],
      "type": "VEC3"
    },
    {
      "bufferView": 2,
      "byteOffset": 63096,
      "componentType": 5126,
      "count": 5258,
      "max": [
        1,
        1,
        0.99999970197677612
      ],
      "min": [
        -1,
        -1,
        -1
      ],
      "type": "VEC3"
    },
    {
      "bufferView": 3,
      "componentType": 5126,
      "count": 5258,
      "max": [
        1,
        1,
        1,
        1
      ],
      "min": [
        -1,
        -1,
        -1,
        -1
      ],
      "type": "VEC4"
    },
    {
      "bufferView": 1,
      "componentType": 5126,
      "count": 5258,
      "max": [
        0.9900977611541748,
        0.99169009923934937
      ],
      "min": [
        0.0090030990540981293,
        0.010029613971710205
      ],
      "type": "VEC2"
    },
    {
      "bufferView": 1,
      "byteOffset": 42064,
      "componentType": 5126,
      "count": 5258,
      "max": [
        0.9900977611541748,
        0.99169009923934937
      ],
      "min": [
        0.0090030990540981293,
        0.010029613971710205
      ],
      "type": "VEC2"
    },
    {
      "bufferView": 1,
      "byteOffset": 84128,
      "componentType": 5126,
      "count": 5258,
      "max": [
        0.9900977611541748,
        0.99169009923934937
      ],
      "min": [
        0.0090030990540981293,
        0.010029613971710205
      ],
      "type": "VEC2"
    },
    {
      "bufferView": 0,
      "componentType": 5125,
      "count": 17142,
      "max": [
        5257
      ],
      "min": [
        0
      ],
      "type": "SCALAR"
    },
    {
      "bufferView": 2,
      "byteOffset": 126192,
      "componentType": 5126,
      "count": 3360,
      "max": [
        6.5894279479980469,
        10.334320068359375,
        16.605392456054688
      ],
      "min": [
        -6.5894336700439453,
        -1.0765259265899658,
        -13.449122428894043
      ],
      "type": "VEC3"
    },
    {
      "bufferView": 2,
      "byteOffset": 166512,
      "componentType": 5126,
      "count": 3360,
      "max": [
        1,
        0.9999997615814209,
        1
      ],
      "min": [
        -1,
        -0.99998337030410767,
        -1
      ],
      "type": "VEC3"
    },
    {
      "bufferView": 3,
      "byteOffset": 84128,
      "componentType": 5126,
      "count": 3360,
      "max": [
        1,
        0.99999570846557617,
        1,
        1
      ],
      "min": [
        -1,
        -0.99997609853744507,
        -1,
        -1
      ],
      "type": "VEC4"
    },
    {
      "bufferView": 3,
      "byteOffset": 137888,
      "componentType": 5126,
      "count": 3360,
      "max": [
        1,
        1,
        1,
        1
      ],
      "min": [
        1,
        1,
        1,
        1
      ],
      "type": "VEC4"
    },
    {
      "bufferView": 1,
      "byteOffset": 126192,
      "componentType": 5126,
      "count": 3360,
      "max": [
        0.72067403793334961,
        0.69078230857849121
      ],
      "min": [
        0.00058656930923461914,
        0.00050824880599975586
      ],
      "type": "VEC2"
    },
    {
      "bufferView": 1,
      "byteOffset": 153072,
      "componentType": 5126,
      "count": 3360,
      "max": [
        0.72067403793334961,
        0.69078230857849121
      ],
      "min": [
        0.00058656930923461914,
        0.00050824880599975586
      ],
      "type": "VEC2"
    },
    {
      "bufferView": 1,
      "byteOffset": 179952,
      "componentType": 5126,
      "count": 3360,
      "max": [
        0.72067403793334961,
        0.69078230857849121
      ],
      "min": [
        0.00058656930923461914,
        0.00050824880599975586
      ],
      "type": "VEC2"
    },
    {
      "bufferView": 0,
      "byteOffset": 68568,
      "componentType": 5125,
      "count": 12855,
      "max": [
        3359
      ],
      "min": [
        0
      ],
      "type": "SCALAR"
    }
  ],
  "asset": {
    "extras": {
      "author": "masterjack20 (https://sketchfab.com/masterjack20)",
      "license": "CC-BY-4.0 (http://creativecommons.org/licenses/by/4.0/)",
      "source": "https://sketchfab.com/models/649c006b72e748bf84e7cda011faaff2",
      "title": "Fishing Boat"
    },
    "generator": "Sketchfab-3.32.3",
    "version": "2.0"
  },
  "bufferViews": [
    {
      "buffer": 0,
      "byteLength": 119988,
      "byteOffset": 0,
      "name": "floatBufferViews",
      "target": 34963
    },
    {
      "buffer": 0,
      "byteLength": 206832,
      "byteOffset": 119988,
      "byteStride": 8,
      "name": "floatBufferViews",
      "target": 34962
    },
    {
      "buffer": 0,
      "byteLength": 206832,
      "byteOffset": 326820,
      "byteStride": 12,
      "name": "floatBufferViews",
      "target": 34962
    },
    {
      "buffer": 0,
      "byteLength": 191648,
      "byteOffset": 533652,
      "byteStride": 16,
      "name": "floatBufferViews",
      "target": 34962
    }
  ],
  "buffers": [
    {
      "byteLength": 725300,
      "uri": "scene.bin"
    }
  ],
  "extensionsRequired": [
    "KHR_materials_pbrSpecularGlossiness"
  ],
  "extensionsUsed": [
    "KHR_materials_pbrSpecularGlossiness"
  ],
  "images": [
    {
      "uri": "textures/material_diffuse.png"
    },
    {
      "uri": "textures/material_specularGlossiness.png"
    },
    {
      "uri": "textures/material_2_diffuse.png"
    },
    {
      "uri": "textures/material_2_specularGlossiness.png"
    }
  ],
  "materials": [
    {
      "alphaCutoff": 0,
      "alphaMode": "MASK",
      "doubleSided": true,
      "emissiveFactor": [
        0,
        0,
        0
      ],
      "extensions": {
        "KHR_materials_pbrSpecularGlossiness": {
          "diffuseFactor": [
            1,
            1,
            1,
            1
          ],
          "diffuseTexture": {
            "index": 0,
            "texCoord": 0
          },
          "glossinessFactor": 1,
          "specularFactor": [
            1,
            1,
            1
          ],
          "specularGlossinessTexture": {
            "index": 1,
            "texCoord": 0
          }
        }
      },
      "name": "material"
    },
    {
      "alphaCutoff": 0,
      "alphaMode": "MASK",
      "doubleSided": true,
      "emissiveFactor": [
        0,
        0,
        0
      ],
      "extensions": {
        "KHR_materials_pbrSpecularGlossiness": {
          "diffuseFactor": [
            1,
            1,
            1,
            1
          ],
          "diffuseTexture": {
            "index": 2,
            "texCoord": 0
          },
          "glossinessFactor": 1,
          "specularFactor": [
            1,
            1,
            1
          ],
          "specularGlossinessTexture": {
            "index": 3,
            "texCoord": 0
          }
        }
      },
      "name": "material_2"
    }
  ],
  "meshes": [
    {
      "primitives": [
        {
          "attributes": {
            "NORMAL": 1,
            "POSITION": 0,
            "TANGENT": 2,
            "TEXCOORD_0": 3,
            "TEXCOORD_1": 4,
            "TEXCOORD_2": 5
          },
          "indices": 6,
          "material": 0,
          "mode": 4
        }
      ]
    },
    {
      "primitives": [
        {
          "attributes": {
            "COLOR_0": 10,
            "NORMAL": 8,
            "POSITION": 7,
            "TANGENT": 9,
            "TEXCOORD_0": 11,
            "TEXCOORD_1": 12,
            "TEXCOORD_2": 13
          },
          "indices": 14,
          "material": 1,
          "mode": 4
        }
      ]
    }
  ],
  "nodes": [
    {
      "children": [
        1
      ],
      "name": "RootNode (gltf orientation matrix)",
      "rotation": [
        -0.70710678118654746,
        -0,
        -0,
        0.70710678118654757
      ]
    },
    {
      "children": [
        2
      ],
      "name": "RootNode (model correction matrix)"
    },
    {
      "children": [
        3
      ],
      "name": "root"
    },
    {
      "children": [
        4
      ],
      "matrix": [
        1,
        0,
        0,
        0,
        0,
        2.2204460492503131e-16,
        1,
        0,
        0,
        -1,
        2.2204460492503131e-16,
        0,
        0,
        0,
        0,
        1
      ],
      "name": "GLTF_SceneRootNode"
    },
    {
      "children": [
        5
      ],
      "name": "root_0"
    },
    {
      "children": [
        6,
        8
      ],
      "matrix": [
        2.331823836266238e-10,
        -3.2754174976657332e-26,
        -0.0013831543037667673,
        0,
        6.466434114472362e-19,
        0.0012856336543336511,
        7.857111964539306e-26,
        0,
        0.0020183292217552371,
        -1.0151720040775827e-18,
        3.4026486964647128e-10,
        0,
        -2.63521409034729,
        0.049877803772687912,
        0.73464083671569824,
        1
      ],
      "name": "node_id81_1"
    },
    {
      "children": [
        7
      ],
      "matrix": [
        21.08050537109375,
        0,
        0,
        0,
        0,
        21.08050537109375,
        0,
        0,
        0,
        0,
        21.08050537109375,
        0,
        0.00030560136656276882,
        -217.02412414550781,
        1271.6844482421875,
        1
      ],
      "name": "node_id77_2"
    },
    {
      "mesh": 0,
      "name": ""
    },
    {
      "children": [
        9
      ],
      "matrix": [
        21.08050537109375,
        0,
        0,
        0,
        0,
        21.08050537109375,
        0,
        0,
        0,
        0,
        21.08050537109375,
        0,
        0.00030560136656276882,
        -217.02412414550781,
        1271.6844482421875,
        1
      ],
      "name": "node_id79_3"
    },
    {
      "mesh": 1,
      "name": ""
    }
  ],
  "samplers": [
    {
      "magFilter": 9729,
      "minFilter": 9987,
      "wrapS": 10497,
      "wrapT": 10497
    }
  ],
  "scene": 0,
  "scenes": [
    {
      "name": "OSG_Scene",
      "nodes": [
        0
      ]
    }
  ],
  "textures": [
    {
      "sampler": 0,
      "source": 0
    },
    {
      "sampler": 0,
      "source": 1
    },
    {
      "sampler": 0,
      "source": 2
    },
    {
      "sampler": 0,
      "source": 3
    }
  ]
}

